<svg xmlns="http://www.w3.org/2000/svg" viewBox="0 0 206.69 177.61"><defs><style>.cls-1{fill:#ce1b75;}.cls-2{fill:#b3d2db;}</style></defs><title>logo</title><g id="Layer_2" data-name="Layer 2"><g id="Object"><path class="cls-1" d="M151.5,1.89C133.39,0,110.35,9.41,104.58,25c-5.13-15.85-32.77-26.09-51-25C5.66,3.09-11.66,57,7.9,93.91c10.53,19.85,25.88,37.33,42.7,53.09,4.63,4.34,11.67,10.28,19.05,16.31l-.12,0c6.15,5,12.51,10.09,17.9,14.33,1.14-8.37,2.79-18.76,2.48-21.54a24.59,24.59,0,0,0-7.55-15.34C78,136.58,73.23,133,69.46,128.21c-1.65-2.11-3-4.44-4.5-6.62s-3.21-4.31-4.92-6.38c-3.5-4.24-7.21-8.31-10.94-12.35-3.17-3.44-6.54-6.79-9.35-10.53-1.9-2.53-4.09-6.24-1.47-9.05,1.88-2,4.39-3.2,7-2.05,3,1.32,5.5,3.87,7.75,6.18,2.84,2.91,5.47,6,8.1,9.12,1.64,1.93,3.3,4.46,5.47,5.84,3.81,2.42,10.43,2.53,13.52-1.13,2.38-2.81,2-6.92,1.25-10.26-1.17-4.92-2.85-9.71-4-14.66a164.74,164.74,0,0,1-4.19-28.92,28.62,28.62,0,0,1,.4-8.4c.44-1.69,1.75-2.48,3.3-3.15,6.41-2.74,8.57,5.61,9.18,10.24.79,6,1.3,11.86,3.24,17.64,1.21,3.6,2.81,7.36,5.41,10.2.61.67,1.94,2.38,2.48,1,.74-1.91.49-4.43.58-6.44.13-2.88.59-5.73.68-8.61.1-3.23-.08-6.47-.28-9.69-.27-4.52-1-9.46.12-13.93.72-2.89,3-5.71,6.34-5.31,3.09.37,4.13,4,4.51,6.61a28.6,28.6,0,0,1,.23,5.15c-.07,2.08-.12,4.1-.1,6.18.09,7.44.12,15.2,1.82,22.48.25,1.07.53,2.78,1.34,3.6,1,1,1.76-.63,2.1-1.49,1.6-4,1.67-8.84,1.86-13.12a80.51,80.51,0,0,0-.06-11.76c-.35-3.44-.49-8.08,1.87-10.91a4.36,4.36,0,0,1,6.67-.25c2,2.22,2.4,5.72,2.67,8.55a97.41,97.41,0,0,1-.78,22.22,79.54,79.54,0,0,0-.88,10.51c0,1.33-.28,7.13,2.29,5.65,3-1.74,4.21-5.86,4.94-9,.88-3.81,1.24-7.71,1.85-11.56.42-2.68.81-6,2.61-8.19A5.3,5.3,0,0,1,142.77,54c1.85.62,2.22,2.85,2.37,4.53A101.5,101.5,0,0,1,145,70.65a200.68,200.68,0,0,1-2.69,27.41,237.19,237.19,0,0,1-6.48,28,91.31,91.31,0,0,1-3.86,10.79c-1.6,3.6-4.08,6.71-5.6,10.35a9.43,9.43,0,0,0-1,3.84c.07,1.61.72,3.28.93,4.91.07.52.13,1,.19,1.56.22,1.88,1,6.72,1.73,11.22,9.52-7.06,19.33-14.57,25.31-19.73C171,134,187,117.12,198.37,97.71,219.42,61.63,199.31,6.8,151.5,1.89Z"/><path class="cls-2" d="M130,106.82l-16.57-.06h-1.55l0-12.07q0-3,0-6.06a1.26,1.26,0,0,0-1.24-1.25l-10.3,0a1.26,1.26,0,0,0-1.25,1.24q0,8.29-.06,16.57v1.55l-12.07,0-6.06,0a1.26,1.26,0,0,0-1.25,1.24l0,10.3a1.25,1.25,0,0,0,1.24,1.25l16.57.06H99q0,6,0,12.07l0,6.06a1.26,1.26,0,0,0,1.24,1.25l10.3,0a1.25,1.25,0,0,0,1.25-1.24q0-8.29.06-16.57,0-.78,0-1.55l12.07,0,6.06,0a1.26,1.26,0,0,0,1.25-1.24q0-5.15,0-10.3A1.26,1.26,0,0,0,130,106.82Z"/></g></g></svg>